<?xml version="1.0" encoding="utf-8"?>
<!-- Generator: Adobe Illustrator 26.3.1, SVG Export Plug-In . SVG Version: 6.00 Build 0)  -->
<svg version="1.1" id="Layer_1" xmlns="http://www.w3.org/2000/svg" xmlns:xlink="http://www.w3.org/1999/xlink" x="0px" y="0px"
	 viewBox="0 0 612 792" style="enable-background:new 0 0 612 792;" xml:space="preserve">
<style type="text/css">
	.st0{fill:none;stroke:#000000;stroke-miterlimit:10;}
</style>
<path class="st0" d="M21.98,19.32c2.61-0.53,6.36-0.83,9.92-0.83c5.53,0,9.09,1.01,11.58,3.27c2.02,1.78,3.15,4.52,3.15,7.6
	c0,5.29-3.33,8.79-7.54,10.22v0.18c3.09,1.07,4.93,3.92,5.88,8.08c1.31,5.58,2.26,9.45,3.09,10.99h-5.35
	c-0.65-1.13-1.54-4.57-2.67-9.57c-1.19-5.53-3.33-7.6-8.02-7.78h-4.87v17.35h-5.17V19.32z M27.15,37.56h5.29
	c5.53,0,9.03-3.03,9.03-7.6c0-5.17-3.74-7.43-9.21-7.49c-2.5,0-4.28,0.24-5.11,0.48V37.56z"/>
<polygon class="st0" points="1.03,19.75 1.03,57.32 33.57,76.1 66.1,57.32 66.1,19.75 33.57,0.97 "/>
</svg>
